HIERARCHY
ROOT Hips
{
  OFFSET -43.3411 73.6987 0
  CHANNELS 6 Xposition Yposition Zposition Zrotation Xrotation Yrotation
  JOINT Bip01_Pelvis
  {
    OFFSET 0 0 0
    CHANNELS 6 Xposition Yposition Zposition Zrotation Xrotation Yrotation
    JOINT BN_Tail_01
    {
      OFFSET -18.6385 -9.591 -2.032e-005
      CHANNELS 6 Xposition Yposition Zposition Zrotation Xrotation Yrotation
      JOINT BN_Tail_02
      {
        OFFSET 20.9743 0 0
        CHANNELS 6 Xposition Yposition Zposition Zrotation Xrotation Yrotation
        JOINT BN_Tail_03
        {
          OFFSET 20.3015 0 0
          CHANNELS 6 Xposition Yposition Zposition Zrotation Xrotation Yrotation
          JOINT BN_Tail_04
          {
            OFFSET 21.6394 -9.91821e-005 0
            CHANNELS 6 Xposition Yposition Zposition Zrotation Xrotation Yrotation
            End Site
            {
              OFFSET 0 0 0
            }
          }
        }
      }
    }
    JOINT Bip01_Spine
    {
      OFFSET 22.1878 -0.659386 3.048e-005
      CHANNELS 6 Xposition Yposition Zposition Zrotation Xrotation Yrotation
      JOINT Bip01_R_Thigh
      {
        OFFSET -22.1873 0.677109 -17.1024
        CHANNELS 6 Xposition Yposition Zposition Zrotation Xrotation Yrotation
        JOINT Bip01_R_Calf
        {
          OFFSET 34.2647 0 0
          CHANNELS 6 Xposition Yposition Zposition Zrotation Xrotation Yrotation
          JOINT Bip01_R_HorseLink
          {
            OFFSET 20.4429 0 0
            CHANNELS 6 Xposition Yposition Zposition Zrotation Xrotation Yrotation
            JOINT Bip01_R_Foot
            {
              OFFSET 16.5673 0 0
              CHANNELS 6 Xposition Yposition Zposition Zrotation Xrotation Yrotation
              JOINT Bip01_R_Toe0
              {
                OFFSET 9.18784 6.94841 0
                CHANNELS 6 Xposition Yposition Zposition Zrotation Xrotation Yrotation
                JOINT Bip01_R_Toe0Nub
                {
                  OFFSET 1.01907 0 0
                  CHANNELS 6 Xposition Yposition Zposition Zrotation Xrotation Yrotation
                  End Site
                  {
                    OFFSET 0 0 0
                  }
                }
              }
            }
          }
        }
      }
      JOINT Bip01_L_Thigh
      {
        OFFSET -22.1873 0.67701 17.1024
        CHANNELS 6 Xposition Yposition Zposition Zrotation Xrotation Yrotation
        JOINT Bip01_L_Calf
        {
          OFFSET 34.2647 0 0
          CHANNELS 6 Xposition Yposition Zposition Zrotation Xrotation Yrotation
          JOINT Bip01_L_HorseLink
          {
            OFFSET 20.4429 0 0
            CHANNELS 6 Xposition Yposition Zposition Zrotation Xrotation Yrotation
            JOINT Bip01_L_Foot
            {
              OFFSET 16.5673 0 0
              CHANNELS 6 Xposition Yposition Zposition Zrotation Xrotation Yrotation
              JOINT Bip01_L_Toe0
              {
                OFFSET 9.18784 6.9484 1.14441e-005
                CHANNELS 6 Xposition Yposition Zposition Zrotation Xrotation Yrotation
                JOINT Bip01_L_Toe0Nub
                {
                  OFFSET 1.01907 0 0
                  CHANNELS 6 Xposition Yposition Zposition Zrotation Xrotation Yrotation
                  End Site
                  {
                    OFFSET 0 0 0
                  }
                }
              }
            }
          }
        }
      }
      JOINT Bip01_Spine1
      {
        OFFSET 39.3372 -0.0249863 0
        CHANNELS 6 Xposition Yposition Zposition Zrotation Xrotation Yrotation
        JOINT Bip01_Neck
        {
          OFFSET 34.2837 -15.5934 -4.318e-005
          CHANNELS 6 Xposition Yposition Zposition Zrotation Xrotation Yrotation
          JOINT Bip01_R_Clavicle
          {
            OFFSET -17.9452 -11.3131 -6.19287
            CHANNELS 6 Xposition Yposition Zposition Zrotation Xrotation Yrotation
            JOINT Bip01_R_UpperArm
            {
              OFFSET 17.4439 1.52588e-005 -2.28882e-005
              CHANNELS 6 Xposition Yposition Zposition Zrotation Xrotation Yrotation
              JOINT Bip01_R_Forearm
              {
                OFFSET 30.6251 1.14441e-005 0
                CHANNELS 6 Xposition Yposition Zposition Zrotation Xrotation Yrotation
                JOINT Bip01_R_Hand
                {
                  OFFSET 31.2039 0 0
                  CHANNELS 6 Xposition Yposition Zposition Zrotation Xrotation Yrotation
                  JOINT Bip01_R_Finger0
                  {
                    OFFSET 22.1039 0.255862 -0.37902
                    CHANNELS 6 Xposition Yposition Zposition Zrotation Xrotation Yrotation
                    JOINT Bip01_R_Finger0Nub
                    {
                      OFFSET 12.0552 0 0
                      CHANNELS 6 Xposition Yposition Zposition Zrotation Xrotation Yrotation
                      End Site
                      {
                        OFFSET 0 0 0
                      }
                    }
                  }
                }
              }
            }
          }
          JOINT Bip01_L_Clavicle
          {
            OFFSET -17.9452 -11.3132 6.19281
            CHANNELS 6 Xposition Yposition Zposition Zrotation Xrotation Yrotation
            JOINT Bip01_L_UpperArm
            {
              OFFSET 17.444 0 1.14441e-005
              CHANNELS 6 Xposition Yposition Zposition Zrotation Xrotation Yrotation
              JOINT Bip01_L_Forearm
              {
                OFFSET 30.6251 0 0
                CHANNELS 6 Xposition Yposition Zposition Zrotation Xrotation Yrotation
                JOINT Bip01_L_Hand
                {
                  OFFSET 31.204 0 0
                  CHANNELS 6 Xposition Yposition Zposition Zrotation Xrotation Yrotation
                  JOINT Bip01_L_Finger0
                  {
                    OFFSET 22.1039 0.255856 0.379024
                    CHANNELS 6 Xposition Yposition Zposition Zrotation Xrotation Yrotation
                    JOINT Bip01_L_Finger0Nub
                    {
                      OFFSET 12.0552 0 0
                      CHANNELS 6 Xposition Yposition Zposition Zrotation Xrotation Yrotation
                      End Site
                      {
                        OFFSET 0 0 0
                      }
                    }
                  }
                }
              }
            }
          }
          JOINT Bip01_Neck1
          {
            OFFSET 14.9359 -0.0106278 0
            CHANNELS 6 Xposition Yposition Zposition Zrotation Xrotation Yrotation
            JOINT Bip01_Head
            {
              OFFSET 14.3578 0.505501 0
              CHANNELS 6 Xposition Yposition Zposition Zrotation Xrotation Yrotation
              JOINT BN_Ear_L_01
              {
                OFFSET 3.76994 -2.35629 12.3444
                CHANNELS 6 Xposition Yposition Zposition Zrotation Xrotation Yrotation
                End Site
                {
                  OFFSET 0 0 0
                }
              }
              JOINT BN_Ear_R_01
              {
                OFFSET 3.76995 -2.35622 -12.3442
                CHANNELS 6 Xposition Yposition Zposition Zrotation Xrotation Yrotation
                End Site
                {
                  OFFSET 0 0 0
                }
              }
              JOINT BN_Mouth_01
              {
                OFFSET 11.8395 10.8645 1.27e-005
                CHANNELS 6 Xposition Yposition Zposition Zrotation Xrotation Yrotation
                JOINT BN_Tongue_01
                {
                  OFFSET 9.73752 3.21674 1.016e-005
                  CHANNELS 6 Xposition Yposition Zposition Zrotation Xrotation Yrotation
                  JOINT BN_Tongue_02
                  {
                    OFFSET 9.04304 0.053505 0
                    CHANNELS 6 Xposition Yposition Zposition Zrotation Xrotation Yrotation
                    End Site
                    {
                      OFFSET 0 0 0
                    }
                  }
                }
                JOINT BN_Beard_01
                {
                  OFFSET 6.93466 -0.751793 0
                  CHANNELS 6 Xposition Yposition Zposition Zrotation Xrotation Yrotation
                  JOINT BN_Beard_02
                  {
                    OFFSET 13.0965 1.52588e-005 0
                    CHANNELS 6 Xposition Yposition Zposition Zrotation Xrotation Yrotation
                    End Site
                    {
                      OFFSET 0 0 0
                    }
                  }
                }
              }
              JOINT Bip01_HeadNub
              {
                OFFSET 25.6158 0 0
                CHANNELS 6 Xposition Yposition Zposition Zrotation Xrotation Yrotation
                End Site
                {
                  OFFSET 0 0 0
                }
              }
            }
          }
        }
      }
    }
  }
}
MOTION
Frames:	4
Frame Time:	0.0333333
-43.3411 59.2349 1.37519 93.6159 -81.9825 -177.564 -3.8147e-006 4.76837e-007 -7.10543e-015 -92.9345 -22.518 -81.7382 -18.6385 -9.59101 -8.88178e-016 -50.0638 0.326889 179.942 20.9743 -7.6294e-006 -0.000607491 22.7721 0.200622 9.55994 20.3015 7.6294e-006 0 7.73177 2.53046 16.9741 21.6394 -7.6294e-006 1.90735e-006 10.2958 5.51745 30.7461 20.0428 -9.10545 2.87251 -15.6317 8.37453 -1.21638 -22.181 0.421272 -19.7851 -73.0626 -6.87472 170.725 34.2647 -3.8147e-006 -1.90735e-006 -54.7395 5.5556e-006 8.22785e-006 20.4429 0 1.90735e-006 73.1282 4.07796e-007 6.09792e-007 16.5673 1.52588e-005 3.8147e-006 4.22363 6.55695 9.27869 9.18785 6.94841 -3.8147e-006 91.3394 -8.46816e-007 -7.38897e-007 1.01906 2.38418e-007 -3.8147e-006 -4.03645e-008 1.78248e-008 -4.26887e-007 -21.4611 5.40494 14.0472 -122.858 14.4121 -171.058 34.2647 -9.05991e-006 0 -106.707 4.8513e-006 -1.65917e-005 20.4429 -1.90735e-006 -3.8147e-006 110.353 -3.99982e-006 -9.08918e-006 16.5673 -3.8147e-006 -3.8147e-006 -29.0248 -5.21231 -4.21418 9.18784 6.94841 -3.8147e-006 89.9962 9.82684e-006 -1.44373e-006 1.01907 1.19209e-007 3.8147e-006 -179.96 -5.89753e-005 1.70331e-005 39.331 -0.0241814 -0.00094986 -14.367 2.20452 5.49386 34.2892 -15.5918 5.62668e-005 30.6637 -0.373277 -6.42843 -21.7193 -1.57146 -3.79508 145.255 -33.9678 121.482 17.4439 3.8147e-006 7.62939e-006 42.1489 6.81146 -101.78 30.6251 -3.8147e-006 1.90735e-006 -21.6572 7.76453e-006 3.7938e-006 31.204 -1.90735e-006 -3.81469e-006 -37.0163 82.3874 9.55196 22.1039 0.255839 -0.379034 -8.70663 9.65669 -42.2509 12.0552 -5.72206e-006 4.17232e-007 179.96 1.81278e-005 -1.02623e-007 -20.3324 -1.65178 8.51244 154.602 43.675 -106.618 17.4439 0 -3.8147e-006 39.6617 -48.7679 87.1648 30.6251 -4.76838e-007 7.10542e-015 -63.1325 4.33091e-006 9.81141e-006 31.204 3.8147e-006 0 -164.764 -73.5035 -163.118 22.1039 0.255854 0.379028 -10.7624 6.07328 10.0774 12.0552 1.90735e-006 3.81469e-006 -1.24853e-006 1.00338e-005 -1.45916e-006 14.9354 -0.0106659 0.00016737 1.28798 -0.903701 1.44067 14.3577 0.505501 8.88179e-016 -21.0984 -3.53519 1.6727 3.7699 -2.35626 12.3444 -172.167 32.7142 -81.1406 3.76994 -2.3562 -12.3442 5.88484 29.4885 114.375 11.8396 10.8645 0 -177.002 -3.76322 178.789 9.73754 3.21675 0 -2.85749 1.26532e-007 3.6323e-009 5.17483 0.535256 -0.1598 -9.73029 1.0564e-006 8.43322e-008 6.93467 -0.751793 0 -85.2106 -2.84746 -1.73039 13.0966 0 0 -7.89265 -1.63549 -12.1212 25.6158 7.6294e-006 -2.38419e-007 -6.59263e-008 1.08709e-006 -6.07726e-008 
-45.9241 60.733 1.55129 91.0324 -84.9031 -177.002 -3.8147e-006 4.76837e-007 -7.10543e-015 -92.012 -15.2102 -82.6265 -18.6385 -9.59101 -2.66454e-015 -50.2633 0.325835 179.874 20.9743 -7.6294e-006 -0.000607491 22.5264 0.244982 9.84892 20.3015 7.6294e-006 3.90799e-014 6.21821 2.55007 16.9855 21.6394 -7.6294e-006 1.90735e-006 7.69886 3.96718 30.3509 21.0639 -6.45799 2.6929 -14.3187 7.12822 -1.91856 -22.6572 -1.41775 -19.0243 -76.828 -7.74219 168.668 34.2647 -3.8147e-006 -1.90735e-006 -61.7117 -4.05586e-006 1.35713e-005 20.4429 -3.55271e-014 1.90735e-006 74.1439 2.1643e-007 8.63872e-007 16.5673 1.52588e-005 3.8147e-006 4.15239 3.6845 10.203 9.18785 6.94841 -3.81377e-006 91.4403 0.00767348 -0.316427 1.01906 2.38418e-007 -3.8147e-006 -4.03645e-008 1.78248e-008 -4.26887e-007 -21.5201 2.82745 14.8969 -119.254 13.193 -172.405 34.2647 -9.05991e-006 1.77636e-014 -97.7403 1.14992e-006 -1.73436e-005 20.4429 -1.90735e-006 -3.8147e-006 107.819 -3.2335e-006 -9.42289e-006 16.5673 -3.8147e-006 -3.8147e-006 -35.1969 -1.54974 -4.45906 9.18784 6.94841 -3.86081e-006 90.152 -0.0522106 2.88729 1.01907 1.19209e-007 3.8147e-006 -179.96 -5.89746e-005 1.7033e-005 39.3351 -0.0241866 -0.00094986 -5.48913 2.83079 3.26863 34.2885 -15.5918 5.62728e-005 26.4275 -0.948743 -6.23254 -21.5343 -3.06723 -3.92988 149.112 -35.2457 121.492 17.444 3.8147e-006 7.62939e-006 46.091 9.03902 -103.881 30.6251 -3.8147e-006 1.90735e-006 -23.4795 8.03275e-006 3.26578e-006 31.204 -1.90735e-006 -3.81469e-006 -42.7177 80.9705 12.9841 22.1039 0.255839 -0.379034 -8.71902 9.84813 -40.1344 12.0552 -5.72206e-006 4.17232e-007 179.96 1.81277e-005 -1.04859e-007 -20.1896 -3.27201 8.38087 158.922 42.6338 -106.851 17.4439 2.84217e-014 -3.8147e-006 35.8414 -56.3515 80.6233 30.6251 -4.76838e-007 2.13163e-014 -60.4627 5.3401e-006 9.07586e-006 31.204 3.8147e-006 -2.13163e-014 -169.733 -70.5559 -167.043 22.1039 0.255854 0.379028 -10.7636 6.07094 10.0462 12.0552 1.90735e-006 3.81469e-006 -1.24853e-006 1.00338e-005 -1.45916e-006 14.9354 -0.0106659 0.00016737 1.0509 -0.742893 1.17572 14.3577 0.505501 -9.98211e-010 -21.1663 -4.88933 2.14144 3.7699 -2.35626 12.3444 -171.975 32.4486 -81.8216 3.76994 -2.3562 -12.3442 5.87872 27.0921 115.11 11.8396 10.8645 2.04715e-008 -177.002 -3.76325 178.789 9.73754 3.21675 3.90293e-009 -2.85749 1.42642e-007 7.09792e-009 5.17483 0.535256 -0.1598 -9.73029 1.04525e-006 4.21879e-007 6.93467 -0.751793 -9.12169e-010 -83.4118 -2.03528 -0.943977 13.0966 2.84217e-014 0 -6.98559 -1.76507 -11.5496 25.6158 7.6294e-006 -2.38419e-007 -6.59263e-008 1.08709e-006 -6.07726e-008 
-48.4351 62.4241 1.73029 83.6023 -88.1101 179.189 -3.8147e-006 4.76837e-007 7.10543e-015 -90.9219 -7.35547 -83.706 -18.6385 -9.59101 -8.88178e-016 -50.795 0.324168 179.681 20.9743 -7.6294e-006 -0.000607491 21.8681 0.366797 10.6266 20.3015 7.6294e-006 7.90479e-014 2.5615 2.59753 17.0169 21.6394 -7.6294e-006 1.90735e-006 1.33895 0.175302 29.4981 21.787 -3.49283 2.38883 -13.2587 5.99822 -2.86353 -22.94 -3.62581 -18.0939 -80.1686 -8.79934 166.448 34.2647 -3.8147e-006 -1.90735e-006 -66.8729 -5.03962e-006 1.30965e-005 20.4429 -4.26326e-014 1.90735e-006 73.0455 8.45995e-007 1.35617e-006 16.5673 1.52588e-005 3.8147e-006 4.62794 0.225878 11.1245 9.18785 6.94841 -3.81269e-006 91.5392 0.0146637 -0.626722 1.01906 2.38418e-007 -3.8147e-006 -4.03645e-008 1.78248e-008 -4.26887e-007 -21.2402 -0.0509464 15.8812 -114.18 11.6594 -173.804 34.2647 -9.05991e-006 2.84217e-014 -86.8828 -2.14702e-006 -1.73198e-005 20.4429 -1.90735e-006 -3.8147e-006 104.628 -2.93605e-006 -9.55981e-006 16.5673 -3.8147e-006 -3.8147e-006 -41.3478 2.00856 -5.01274 9.18784 6.94841 -3.88801e-006 89.5418 0.0162745 1.49621 1.01907 1.19209e-007 3.8147e-006 -179.96 -5.89732e-005 1.7033e-005 39.3392 -0.0242017 -0.000949859 4.20072 3.16194 0.706714 34.2879 -15.5918 5.62758e-005 22.0546 -1.58916 -6.06065 -21.2293 -4.58713 -4.10399 153.07 -36.9585 122.115 17.444 3.8147e-006 7.62939e-006 50.5167 10.1843 -106.473 30.6251 -3.8147e-006 1.90735e-006 -26.722 7.80206e-006 3.77571e-006 31.204 -1.90735e-006 -3.81469e-006 -45.722 79.5705 14.785 22.1039 0.255839 -0.379034 -8.75329 10.2882 -38.2057 12.0552 -5.72206e-006 4.17232e-007 179.96 1.81276e-005 -1.09135e-007 -19.922 -4.93067 8.20771 163.483 42.4512 -104.982 17.4439 0 -3.8147e-006 29.1359 -55.7532 69.97 30.6251 -4.76838e-007 -1.42108e-014 -67.3849 -4.32089e-006 1.35937e-005 31.204 3.8147e-006 -4.26325e-014 -168.922 -67.2367 -167.108 22.1039 0.255854 0.379028 -10.8941 5.8234 6.90464 12.0552 1.90735e-006 3.81469e-006 -1.24853e-006 1.00338e-005 -1.45916e-006 14.9354 -0.0106659 0.00016737 0.800098 -0.567318 0.895785 14.3577 0.505501 -1.94555e-009 -21.1717 -6.22657 2.96894 3.7699 -2.35626 12.3444 -171.504 31.6967 -83.537 3.76994 -2.3562 -12.3442 6.11198 21.6324 116.033 11.8396 10.8645 4.92539e-008 -177.002 -3.76328 178.789 9.73754 3.21675 9.76042e-009 -2.85749 1.63279e-007 1.22991e-008 5.17483 0.535256 -0.1598 -9.7303 -5.28984e-007 9.98126e-006 6.93467 -0.751793 -2.28113e-009 -81.1859 -1.18772 -0.28547 13.0966 -1.42109e-014 -2.22045e-016 -4.56524 -2.11059 -10.0522 25.6158 7.6294e-006 -2.38419e-007 -6.59263e-008 1.08709e-006 -6.07726e-008 
-50.971 64.1319 1.91105 -77.5769 -88.5826 21.664 -3.8147e-006 4.76837e-007 -7.10543e-015 -89.6808 0.559266 -84.9209 -18.6385 -9.59101 0 -51.606 0.321651 179.368 20.9743 -7.6294e-006 -0.000607491 20.8339 0.552801 11.8319 20.3015 7.6294e-006 1.25233e-013 -2.23693 2.67098 17.0733 21.6394 -7.6294e-006 1.90735e-006 -7.15779 -4.89286 28.5968 22.0991 -0.440756 1.96321 -12.144 4.98405 -3.90251 -22.9148 -5.85937 -17.1068 -83.2428 -9.88377 164.334 34.2647 -3.8147e-006 -1.90735e-006 -70.4901 2.88858e-006 9.63802e-006 20.4429 -4.9738e-014 1.90735e-006 70.833 9.09737e-006 4.54644e-006 16.5673 1.52588e-005 3.8147e-006 5.07478 -3.66114 11.8701 9.18785 6.94841 -3.8119e-006 91.6392 0.0211749 -0.940101 1.01906 2.38418e-007 -3.8147e-006 -4.03645e-008 1.78248e-008 -4.26887e-007 -20.5954 -2.88637 16.8896 -109.242 9.84989 -174.834 34.2647 -9.05991e-006 2.4869e-014 -76.0028 -4.49358e-006 -1.68916e-005 20.4429 -1.90735e-006 -3.8147e-006 99.7122 -1.0972e-006 -9.96155e-006 16.5673 -3.8147e-006 -3.8147e-006 -46.0851 4.80845 -5.65706 9.18784 6.94841 -3.89785e-006 89.1313 0.0593893 -0.657355 1.01907 1.1921e-007 3.8147e-006 -179.96 -5.89719e-005 1.70329e-005 39.3432 -0.0242017 -0.000949859 13.9964 3.05221 -1.89391 34.2873 -15.5918 5.62755e-005 17.6387 -2.24736 -5.93735 -20.8057 -6.09021 -4.30777 157.09 -38.7946 122.97 17.444 3.8147e-006 7.62939e-006 54.4607 10.0365 -109.011 30.6251 -3.8147e-006 1.90735e-006 -32.9477 1.78012e-006 1.30348e-005 31.204 -1.90735e-006 -3.81469e-006 -45.6604 78.4523 15.3946 22.1039 0.255839 -0.379034 -8.80811 10.7902 -36.2863 12.0552 -5.72206e-006 4.17232e-007 179.96 1.81275e-005 -1.17039e-007 -19.5254 -6.57634 8.00196 168.037 42.4 -102.745 17.4439 5.68435e-014 -3.8147e-006 23.5742 -54.6513 59.3129 30.6251 -4.76838e-007 -4.9738e-014 -74.146 -5.48409e-006 1.3475e-005 31.204 3.8147e-006 -5.68434e-014 -167.739 -63.93 -166.769 22.1039 0.255854 0.379028 -11.0734 5.52724 2.82984 12.0552 1.90735e-006 3.81469e-006 -1.24853e-006 1.00338e-005 -1.45916e-006 14.9354 -0.0106659 0.00016737 0.547666 -0.388759 0.613875 14.3577 0.505501 -2.44361e-009 -21.0104 -7.26512 3.88438 3.7699 -2.35626 12.3444 -170.868 30.2142 -86.0253 3.76994 -2.3562 -12.3442 6.59113 15.3727 115.89 11.8396 10.8645 8.5297e-008 -177.002 -3.76332 178.789 9.73754 3.21675 1.75568e-008 -2.85749 1.86975e-007 1.92219e-008 5.17483 0.535256 -0.1598 -9.7303 -4.52737e-007 1.00007e-005 6.93467 -0.751793 -4.10323e-009 -78.7085 -0.268161 0.178091 13.0966 4.26326e-014 -6.66134e-016 -0.838491 -2.6246 -7.81565 25.6158 7.6294e-006 -2.38419e-007 -6.59263e-008 1.08709e-006 -6.07726e-008 
